<svg height="54" viewBox="0 0 72 54" width="72" xmlns="http://www.w3.org/2000/svg"><path d="m53.3079783 24.1039565c-.3838696-1.4967391-1.3276957-2.753413-2.6571522-3.5393478-1.3312174-.7865217-2.8884131-1.0066304-4.3851522-.621587-2.7980217.7201957-4.5853043 3.3814566-4.3076739 6.1724348l-5.859587 1.5090652c.0616305-.4384565.1044783-.8827826.1044783-1.3382608 0-5.2949348-4.3076739-9.6026087-9.6026087-9.6026087-.3885652 0-.7695.0299348-1.1463261.0751304l1.6992392-5.0742391c.3275217.0569348.6573913.0874565.9866739.0874565.8827826 0 1.7596956-.2042609 2.5726304-.6092609 1.3828696-.6885 2.4147391-1.87532606 2.9060217-3.34095649 1.0119131-3.02458696-.6245217-6.30978261-3.6479347-7.32286957-3.0234131-1.01191304-6.3097827.62452174-7.3234566 3.64969566-.917413 2.73873913.3439566 5.68584782 2.8379348 6.9706956l-1.9891956 5.9417609c-.0176087.0534131-.0293479.1074131-.0363913.1614131-3.6103696 1.254913-6.2399348 4.6017391-6.4371522 8.586l-5.0355-1.6898479c.4771956-2.7639782-1.1140435-5.5467391-3.85219567-6.4653261-1.46621739-.4918695-3.03397826-.3832826-4.41684782.3046305-1.38404348.687913-2.4165 1.8735652-2.90719565 3.3380217-1.01484783 3.0234131.61923913 6.3097826 3.64265217 7.3263913.60808696.2036739 1.22615217.3005218 1.83482609.3005218 2.13358695 0 4.14332608-1.1921087 5.14408698-3.132587l5.6817391 1.9064348c.6855652 4.6275652 4.6721739 8.1933261 9.4875652 8.1933261.3856305 0 .7642174-.0293478 1.1375218-.0733696l-2.1353479 4.3381957c-1.1674565-.3697826-2.415913-.3656739-3.5951087.0358043-1.4621087.4971522-2.6436521 1.5348913-3.3262826 2.9212826-.6832174 1.3863913-.7859348 2.9553261-.2881956 4.4180218.4971522 1.4632826 1.5348913 2.644826 2.9224565 3.3274565.8064783.3973695 1.6751739.5975217 2.5485652.5975217.6274565 0 1.2578478-.1033043 1.8700435-.3116739 1.4626956-.4983261 2.6442391-1.5354783 3.3256956-2.9206956.6838044-1.3875653.7859348-2.957087.2881957-4.4191957-.4020652-1.1797826-1.1598261-2.1711522-2.1646957-2.8708043l2.7663261-5.6206957c.0064566-.0135.0093913-.027587.0152609-.0416739 2.6172391-.9837391 4.6886087-3.0733044 5.6488696-5.7016957l6.7822826-1.7467826c.4801304 1.1263696 1.296 2.0707826 2.3701304 2.7052826.9027391.5329566 1.9093696.8058913 2.9306739.8058913.4836522 0 .9708261-.0610434 1.4521305-.1848913 1.497913-.3856304 2.7545869-1.3306304 3.5399347-2.6606739.784174-1.3306304 1.0042827-2.8872391.6180653-4.3833913zm-28.9915435-19.39539128c.7055217-2.10365218 2.9887826-3.2441087 5.0947826-2.53917392 2.1030652.70434783 3.2405869 2.98995653 2.5368261 5.09419566-.3410218 1.01954347-1.0588696 1.84480434-2.0203044 2.32376087-.9620217.47836957-2.052.55467387-3.0715434.21306521-2.1048261-.70552174-3.2435218-2.98936956-2.5397609-5.09184782zm3.1636956 42.73571738c-.4748478.9637826-1.296 1.6857391-2.3137826 2.0320435-1.0160217.3463043-2.1089348.2764565-3.0721304-.1983913-.9655435-.4748478-1.6869131-1.296587-2.0332174-2.3143696-.3457174-1.0171956-.2741087-2.1089348.2013261-3.0738913s1.2965869-1.6863261 2.3131956-2.0320435c.4243696-.1443913.8610653-.216 1.296587-.216.6086739 0 1.2138261.1396957 1.7755435.4167392h.0005869c.9649566.4748478 1.6869131 1.296 2.0326305 2.3126087.3457174 1.0160217.2746956 2.1077608-.2007392 3.0733043zm-22.46693475-20.4912391c-2.10365217-.7066957-3.24058695-2.9934783-2.5338913-5.0971305.34160869-1.0183695 1.06004348-1.8430434 2.02206522-2.321413.56582608-.2811522 1.17508695-.4231957 1.78845652-.4231957.43082608 0 .864.0698479 1.28426087.2107174 2.1018913.7055218 3.23882604 2.9905435 2.53389134 5.0941957-.70669569 2.1042391-2.98995656 3.2429348-5.09478265 2.5368261zm21.58767395 7.1761304c-4.3241087 0-7.8417392-3.5182174-7.8417392-7.842913 0-4.3241087 3.5176305-7.8417392 7.8417392-7.8417392s7.8417391 3.5176305 7.8417391 7.8417392c0 4.3246956-3.5176304 7.842913-7.8417391 7.842913zm24.5717608-6.5375217c-.5464565.9250435-1.4210217 1.5824348-2.4628695 1.8506739-1.0395.2676522-2.1218479.1150435-3.0474783-.4314131-.9256304-.5464565-1.5824348-1.4210217-1.8500869-2.4622826-.5529131-2.1488478.7454347-4.346413 2.8936956-4.8993261.3351522-.0862826.674413-.1291304 1.011913-.1291304.7102174 0 1.4104566.1901739 2.0385.5611304.9244566.5464566 1.580674 1.4204348 1.8471522 2.4605218 0 0 .000587.0005869.000587.0011739.2670652 1.0406739.1144565 2.1236087-.4314131 3.0486522z" fill="#2d374b" fill-rule="evenodd" transform="translate(9 1)"/></svg>