<svg height="54" viewBox="0 0 72 54" width="72" xmlns="http://www.w3.org/2000/svg"><g fill="#2d374b" fill-rule="evenodd" transform="translate(3 5)"><path d="m10.2898125 28.194375h8.4170625c.5699375 0 1.03125-.462 1.03125-1.03125s-.4613125-1.03125-1.03125-1.03125h-7.184375c.138875-.598125.3444375-1.2711875.6208125-1.7304375.50325-.8394375 1.8486875-1.923625 2.3546875-2.2928125.649-.510125 1.2368125-.8971875 1.7551875-1.238875 1.406625-.9274375 2.622125-1.7276875 2.622125-3.74825 0-2.6049375-2.1195625-4.7238125-4.7238125-4.7238125-2.6063125 0-4.7265625 2.1195625-4.7265625 4.7238125 0 .5699375.4613125 1.03125 1.03125 1.03125s1.03125-.4613125 1.03125-1.03125c0-1.4678125 1.194875-2.6613125 2.6640625-2.6613125 1.4678125 0 2.6613125 1.1935 2.6613125 2.6613125 0 .8738125-.3513125 1.14125-1.694 2.0260625-.52525.3458125-1.178375.7761875-1.8645 1.3165625-.2096875.152625-2.0700625 1.527625-2.87925 2.8758125-.814 1.354375-1.082125 3.466375-1.109625 3.702875-.034375.292875.05775.5864375.2536875.8064375.19525.218625.4764375.345125.7706875.345125z"/><path d="m20.5638125 24.415875h5.3515v2.82425c0 .56925.4613125 1.03125 1.03125 1.03125s1.03125-.462 1.03125-1.03125v-2.82425h1.617c.5699375 0 1.03125-.462 1.03125-1.03125s-.4613125-1.03125-1.03125-1.03125h-1.617v-8.844c0-.4571875-.301125-.859375-.73975-.988625-.43725-.12925-.9095625.045375-1.15775.429l-6.38275 9.87525c-.204875.317625-.22.7211875-.039875 1.0525625s.5286875.5383125.906125.5383125zm5.3515-7.41125v5.34875h-3.45675z"/><path d="m32.456875 35.22475c.094875.0268125.18975.039875.2839375.039875.44825 0 .8614375-.2949375.9906875-.748l6.4824375-22.6895625c.15675-.54725-.1601875-1.1185625-.708125-1.274625-.5465625-.1546875-1.1185625.160875-1.274625.708125l-6.4824375 22.688875c-.15675.5479375.160875 1.1185625.708125 1.2753125z"/><path d="m44.826375 15.181375h6.7148125l-2.861375 4.85375h-2.6929375c-.56925 0-1.03125.4613125-1.03125 1.03125s.462 1.03125 1.03125 1.03125h1.47675l-3.158375 5.357c-.2894375.490875-.1265 1.1226875.364375 1.412125.1643125.097625.3444375.143.5231875.143.3526875 0 .697125-.1815.8889375-.507375l3.77575-6.4040625h2.58775c.56925 0 1.03125-.4613125 1.03125-1.03125s-.462-1.03125-1.03125-1.03125h-1.3715625l3.161125-5.361125c.1876875-.319.1904375-.7143125.0075625-1.035375-.18425-.3210625-.5259375-.51975-.8958125-.51975h-8.5201875c-.56925 0-1.03125.4613125-1.03125 1.03125s.462 1.0305625 1.03125 1.0305625z"/><path d="m64.453125.424875h-63.2383125c-.5699375 0-1.03125.4613125-1.03125 1.03125v41.2465625c0 .56925.4613125 1.03125 1.03125 1.03125h63.2383125c.56925 0 1.03125-.462 1.03125-1.03125v-41.2465625c0-.5699375-.462-1.03125-1.03125-1.03125zm-1.03125 41.2465625h-61.1758125v-39.1840625h61.1758125z"/></g></svg>