<svg height="54" viewBox="0 0 72 54" width="72" xmlns="http://www.w3.org/2000/svg"><g fill="#2d374b" fill-rule="evenodd" transform="translate(7)"><path d="m57.9054886 0h-56.81097723c-.60489995 0-1.09451137.4893497-1.09451137 1.0939263v50.8121474c0 .6038473.48961142 1.0939263 1.09451137 1.0939263h56.81097723c.6049 0 1.0945114-.490079 1.0945114-1.0939263v-50.8121474c0-.6045766-.4896114-1.0939263-1.0945114-1.0939263zm-1.0945113 50.8121474h-54.62195457v-48.6242948h54.62195457z"/><path d="m28.4988954 43c8.6412264 0 15.7477405-6.6771775 16.4407176-15.1416616.0360849-.1089911.060387-.2238736.060387-.3446476 0-.0699605-.0081007-.1377117-.0206199-.2039901.0132556-.2680591.0206199-.5375912.0206199-.8085961 0-9.0985472-7.4025574-16.5011046-16.5011046-16.5011046-9.0978108 0-16.4988954 7.4025574-16.4988954 16.5011046.0007364 9.0978108 7.401821 16.4988954 16.4988954 16.4988954zm14.2874071-16.5909487h-13.1827677v-14.1438039c7.3348062.5655754 13.1349 6.6779139 13.1827677 14.1438039zm-15.3920466-14.1438039v15.2484434c0 .6104975.494142 1.1046395 1.1046395 1.1046395h14.1172926c-1.0287876 6.8760126-6.9577559 12.1723907-14.1172926 12.1723907-7.8790253 0-14.2896164-6.4105911-14.2896164-14.2896164.0007364-7.5078663 5.8221865-13.6680725 13.1849769-14.2358572z"/></g></svg>