<svg height="54" viewBox="0 0 72 54" width="72" xmlns="http://www.w3.org/2000/svg"><path d="m71.8869166 25.956807c-.271709-.559994-.9438708-.7919486-1.5000135-.5209595l-7.9424368 3.8696635-5.412474 2.3510739c-.8353368-.2161907-2.9693381-.7769353-4.8862715-1.3466879l-.9401282-.3513099c-.1377258-.0510451-.2791942-.0720636-.4176685-.0683103-.6646766-.21544-1.2425261-.4196202-1.6317512-.5915218-1.8667833-.8242271-5.2021427-2.7616861-6.5464662-3.9312178-1.5187262-1.3166615-5.4753487-6.2034722-5.5150197-6.2530159-.3360809-.4158669-.9176729-.5367235-1.3907311-.2897556-1.0883332.5682512-4.6183051 2.0673236-6.4873339 1.5223429-.9865358-.2942596-2.8121511-1.2986456-3.3286228-1.9239472-.3443145-.4158668-.6377303-1.9149392-.4827888-2.3938617.4034468-.2049307 1.9334007.0547984 2.6826589.1816603 1.2821972.217692 2.494783.4233734 3.4311687.1193553 1.8233697-.5907712 5.5000495-3.7413003 6.386285-4.5159837.879499-.3220341 5.2186099-1.7888279 8.2448348-.5817632 1.5965713.6373122 3.1489805.8572562 4.5337235.8572562 2.9947874 0 5.2036397-1.0321605 5.3675633-1.11098l11.0300395-5.91146461c.5464121-.29350892.7530008-.97511017.461082-1.52384422-.2926673-.54798339-.9723142-.75591681-1.5194748-.4624079l-10.9806378 5.88594212c-.038174.01801589-3.9438978 1.81510111-8.0621984.1726523-3.5868587-1.43226343-8.2403437-.00825729-9.6512846.48868107-1.5651338-.5952751-5.9648741-2.17391766-7.9199815-1.87665544-1.8248667.28074766-7.1392859.53221949-9.2919999.13361787-.9086908-.25747712-7.8114476-4.00328138-13.84368756-7.39627441-.54192105-.30401818-1.22531044-.111098-1.52845689.43163075-.30314644.54197809-.11077944 1.22883398.42964459 1.53285216 3.94539483 2.21970805 13.25685596 7.40603302 14.49638806 7.63798761 2.6332573.4894318 8.2919909.1606417 10.0756896-.11334996.8817445-.13436853 3.2769756.52696486 5.3735514 1.24609916-1.5673794 1.2858844-3.4386537 2.6858693-4.2919548 2.962113-.4146744.1343685-1.496271-.0495437-2.3660393-.1974242-1.7792077-.3017662-3.6182961-.6140416-4.6961501.4826758-1.2028552 1.2363406-.4820403 4.3320714.3922191 5.3875025.9019542 1.0922134 3.1811664 2.277509 4.4244411 2.6475854 2.4191834.7048718 5.7642734-.5772592 7.3294073-1.2866349 1.1841424 1.4405207 3.9147059 4.7104051 5.226095 5.8476583 1.6362423 1.4240062 5.3046885 3.4920805 7.111591 4.2900344.7035992.3107741 1.8929811.6996171 3.1639507 1.0802028l5.265766 1.9674856c.2754515.1426258.4842858.4083602.621263.7911979.2380261.6658374.1901215 1.5546214-.117516 2.2091988-.3757519.7926993-1.2185738 1.2055635-2.0172337 1.0899615-.1579356-.0915808-.3353324-.1426258-.5187173-.1501325l-7.1392858-3.7142764c-.5501547-.2867529-1.2283045-.0705622-1.5134867.4811745s-.0711085 1.2318366.4797947 1.5178389l7.1901845 3.7397989c.0217068.0105093.0441621.0165146.0658689.0270239.0546412.2852516.0037425.4834264-.0770965.7446569-.0546412.1756549-.1182645.3813363-.1504505.6192962-.4715611.8737708-1.538936 1.2603618-2.4543634.8655135l-6.0262519-2.6265669c-.0269463-.0120106-.0546412-.0165146-.0823361-.0262732-.0359284-.0127613-.0718569-.0262732-.1077854-.0345305-.0366769-.0090079-.0741024-.0135119-.1107794-.0180158-.0359285-.004504-.0711084-.0105093-.1062884-.0120106-.038174-.0015014-.0755995.0015013-.113025.0045039-.0344314.002252-.0688628.0030027-.1025458.009008-.0374255.0060053-.0733539.0157639-.1092824.0255225-.0329344.0090079-.0666174.0165146-.0988033.0285252-.0344314.0127612-.0666174.0292758-.0995518.0450397-.0321859.0157639-.0643718.0300265-.0950607.048793-.0306889.0180159-.0583838.0405358-.0868272.0615543-.0299403.0217692-.0591322.0435384-.0868271.0683103-.0261978.0240212-.0494016.051045-.0733539.0773182-.0254494.0285252-.0516472.055549-.0741025.0863261-.0217068.0292759-.0389225.0615543-.0583838.0930821-.0157187.0262732-.0336829.0487931-.0471561.0765676-.004491.0090079-.0059881.0187665-.0104791.0277745-.0037426.0082573-.0097306.0150132-.0127247.0232705-.0112276.0255225-.0157187.051045-.0247008.0773182-.0134732.0382838-.0276949.0765676-.036677.1148513-.0082336.0345305-.0119761.0698116-.0164672.1050927-.0052396.0375331-.0112276.0750663-.0119761.1125994-.0014971.0360317.001497.0720635.0037425.1080953s.0037426.0720636.0089821.1080954c.0059881.0360318.0157187.0713129.0247008.106594.0089822.0345305.0172158.0683103.0291919.1020901.0127247.0337798.0284434.0668089.0441621.0990874.0149702.0322784.0299404.0645569.0479046.0945834.0187128.0315278.0411681.0608036.0628748.0900795.0209583.0292758.0419166.0578009.0658689.0848248.0247008.0277745.0531442.0517957.0815876.0773182.0269463.0240212.0523956.048793.0815875.0705622.0306889.0225199.0643719.0420371.0980548.0615543.0239523.0150133.0456591.0322785.0711084.0450398l1.6063019.7979539c.9528529.4541506 1.3615392 1.6011624.9101879 2.5582566-.2215589.4699146-.6115325.8249778-1.0980638.9991314-.4797948.1719016-.995518.1456285-1.455103-.0735649l-4.5172562-2.1401379 1.2874367-2.1904322c1.2395321-2.1011034.5419211-4.8260071-1.5539062-6.0736076-.0007485 0-.001497-.0007507-.001497-.0007507-.9356372-.5539887-1.9932814-.7228877-2.9887994-.5569913.2043432-2.00652-.7080902-4.0318066-2.5142442-5.1090068-.001497-.0015013-.0037425-.002252-.0059881-.0037533-1.7941778-1.0569324-3.9693471-.9067999-5.61532.1921695-.3270988-.9758608-.9865359-1.8451276-1.9378917-2.4118776-2.111546-1.2430965-4.8361214-.5427287-6.073408 1.559876l-3.0105062 5.1097575-7.36832986-5.2861631c-.02619784-.0187665-.05538972-.0315278-.08308458-.0472917-.02694635-.0157639-.05089866-.0352811-.07934203-.048793l-7.96489212-3.8794222c-.55689124-.270989-1.22980149-.0390344-1.50001351.5209596-.27096052.5592433-.038174 1.2333379.51946576 1.5050777l7.879562 3.8388863 7.55695434 5.4220329c-.5785981 1.9149392.1946125 4.0558277 1.9917844 5.1187654.7058447.4166175 1.4805522.6147923 2.2455292.6147923.2462597 0 .4902739-.0277745.7320425-.0683103-.2125768 2.0237853.7080902 4.0670877 2.5322085 5.1495426.8061449.4759198 1.7051051.7191343 2.6212811.7191343.4663215 0 .9371341-.0630556 1.4019587-.1906682.5718614-.1568884 1.1040519-.4083602 1.5853436-.7333969.3308413.9698555.9925239 1.8323664 1.9408858 2.3961137.7043476.4158668 1.4783067.6140416 2.2425351.6140416 1.5149837 0 2.994039-.777686 3.8211422-2.175419l1.1953701-2.0350451 4.6998926 2.2272147c.5636279.268737 1.1676752.4046069 1.7739681.4046069.4700641 0 .9416253-.0810715 1.3982162-.2447159 1.0524047-.3760818 1.8959752-1.1425078 2.3735244-2.1581538.3308413-.7018691.4438663-1.4495286.3765004-2.170915l1.157196.504445c.5321905.2304533 1.0883332.3385487 1.6354938.3385487 1.613787 0 3.1564656-.9450837 3.841352-2.5214743.0621263-.1418751.0935637-.2897556.0935637-.444392.002994-.0412864.0419165-.164395.0696114-.2544745.0823361-.266485.1931155-.6230496.2073372-1.0847068 1.3473175-.1884162 2.5808616-1.0321605 3.2081127-2.3570793.5643764-1.1980568.6414729-2.7053864.2020977-3.9342204-.149702-.4173682-.3600332-.7784367-.6085385-1.0974681l4.5516878-1.9772442c.0082336-.0037533.0149702-.0090079.0232038-.0135119.0067365-.0030027.0142216-.0037533.0209582-.0075066l7.9648921-3.8801728c.5568913-.2739917.7896778-.9473357.5187173-1.506579zm-52.6861034 13.9443006c-1.0404285-.6147923-1.3907311-1.9607296-.7814442-2.9981448l3.6332663-6.168191c.4056923-.6883573 1.1354893-1.0704443 1.8847475-1.0704443.3794945 0 .7642285.0983367 1.1137825.3040182 1.033692.6162936 1.3795035 1.9599789.7702165 2.995142l-3.6317692 6.1689418c-.610784 1.0374151-1.9528619 1.3812184-2.9887994.7686781zm7.80022 5.9925361c-.7896778.2161907-1.6025594.1103474-2.2904398-.2957609-1.4393842-.8542535-1.8959752-2.7699434-1.0194703-4.2690158l4.7036352-7.9765362c.5898257-1.006638 1.6399848-1.571136 2.7066112-1.571136.5149747 0 1.0329435.1313659 1.5045046.4083602 1.4304021.8550043 1.8787594 2.7639382.9992605 4.2555039l-4.7006412 7.9757856c-.4281475.7303943-1.1040518 1.2536059-1.9034602 1.4727992zm8.2493258 1.1274946c-.612281 1.0351631-1.9551074 1.3789664-2.9887994.7679274-1.0419255-.6185456-1.3922281-1.9644829-.7799471-3.0011474l3.6302722-6.1681911c.4064408-.6876065 1.1347408-1.0689429 1.8832505-1.0689429.3809914 0 .766474.0990874 1.1182735.3070208 1.0314465.615543 1.3757609 1.9562257.764977 2.9913888l-1.5232173 2.5927872c-.3158711.0780688-.5965623.2882542-.7462642.606535-.1182646.2514718-.1309892.5232115-.0636234.7724314z" fill="#2d374b" fill-rule="evenodd" transform="translate(0 1)"/></svg>