<?xml version="1.0" encoding="UTF-8"?>
<svg width="32px" height="32px" viewBox="0 0 32 32" version="1.1" xmlns="http://www.w3.org/2000/svg" xmlns:xlink="http://www.w3.org/1999/xlink">
    <!-- Generator: Sketch 57.1 (83088) - https://sketch.com -->
    <title>Path</title>
    <desc>Created with Sketch.</desc>
    <g id="✔-Sites-Fertigstellung" stroke="none" stroke-width="1" fill="none" fill-rule="evenodd">
        <g id="Module---RQ-Kosmonaut-Website---Startseite" transform="translate(-1369.000000, -11429.000000)" fill="#FFFFFF" fill-rule="nonzero">
            <g id="Module" transform="translate(-3.000000, -0.036982)">
                <g id="Kosmonaut-Module/RQ" transform="translate(0.000000, 0.036982)">
                    <g id="RQ-072-/-Footer-/-Footer" transform="translate(0.000000, 11277.000000)">
                        <g id="Molecules/Footer/Desktop">
                            <g id="Stacked-Group" transform="translate(856.000000, 112.000000)">
                                <g id="Kosmonaut-Social_Media" transform="translate(468.000000, 0.000000)">
                                    <path d="M48,40 L48,72 L65.0419503,72 L65.0419503,59.639067 L60.8759748,59.639067 L60.8759748,54.5929915 L65.0419503,54.5929915 L65.0419503,50.355184 C65.0419503,47.2731486 67.5404121,44.7746868 70.6224475,44.7746868 L74.9776578,44.7746868 L74.9776578,49.3122507 L71.8612863,49.3122507 C70.8819696,49.3122507 70.0880258,50.1061945 70.0880258,51.0855112 L70.0880258,54.5930617 L74.8993659,54.5930617 L74.2344107,59.6391372 L70.0880258,59.6391372 L70.0880258,72 L80,72 L80,40 L48,40 Z" id="Path"></path>
                                </g>
                            </g>
                        </g>
                    </g>
                </g>
            </g>
        </g>
    </g>
</svg>