<svg height="54" viewBox="0 0 72 54" width="72" xmlns="http://www.w3.org/2000/svg"><path d="m43.3522771 12.5939889c-.9139787 4.5928724-2.8482128 9.8308724-4.5991915 12.4550426l-1.0484043 1.5734681c.8180426 1.8124468 3.5025319 7.9592553 3.5209149 10.5817021.0218298 2.8614255-3.3882127 9.5166383-5.445383 10.6288085-.304468.1642979-.5750425.2234681-.8059787.2234681-.3308936 0-.5796383-.1200638-.7301489-.2200213-1.0943617-.727851-2.9108298-5.8509574-4.1689149-9.7625106l-4.5951702 6.8964894c-2.097383 3.1457872-5.6286383 4.9708723-9.3017873 4.9708723-.6778723 0-1.3603404-.063766-2.0393617-.1912979l-1.5872553 2.3823192c-.7967872 1.1948936-2.1249574 1.8365744-3.49678721 1.8365744-.84734043 0-1.71191489-.2447234-2.47768085-.7554255-.96510638-.6422553-1.6343617-1.6085106-1.88368085-2.7206808-.25219149-1.126532-.04480851-2.2657022.58365957-3.2089788l1.59070213-2.3869149c-2.42885106-3.7104893-2.43689362-8.5733617.04423404-12.2964893l3.69842557-5.5516596c.0028723-.0040213.0040212-.0091915.0068936-.0132128.0028723-.0040212.0063191-.007468.0091915-.0114893l.5876808-.8818085c-2.23582977.1884255-4.86459572.3624893-6.97404253.3624893-1.75385107 0-3.1446383-.1200638-3.64155319-.4521064-.25448936-.1688936-.67155319-.5796383-.58768085-1.4149148.2320851-2.3265958 5.06048936-8.037383 7.71051063-9.1208298 2.42827664-.990383 9.13117024-.882383 11.12227664-.8260851l1.3431063-2.0158086c1.7504043-2.626468 5.8400426-6.42714889 9.7251703-9.03810634 3.6271914-2.43746808 8.5894468-4.91744681 11.6306808-2.889 3.0418085 2.02614894 2.6626596 7.56057447 1.8095745 11.84610634zm-21.7315532 1.0369149-1.5878298 2.3840426c-.0189575.0315957-.0384894.0620425-.0608936.090766l-7.4422341 11.1711063 4.9157234 3.2750426c.0045958.0028723.0091915.0040213.0132128.0068936.0045958.0028723.0074681.0063192.0114894.0091915l10.7597872 7.1682128 9.089234-13.6424681c1.4074469-2.1100213 3.3502979-6.8528298 4.3424043-11.835766 1.0455319-5.25236169.6537447-8.92436169-1.0748298-10.07559573-1.7302979-1.15353191-5.2695957-.10110638-9.7136808 2.88497873-4.2154468 2.83327659-7.8455107 6.4524255-9.252383 8.5635957zm-19.88406385 11.0435745c1.22131915.2665532 6.26859575.0361915 10.70291485-.3705319l5.2707447-7.9115745c-2.9274893-.0390638-7.6840851.0465319-9.33740423.720383-2.29844681.9398298-6.36338298 6.0974043-6.63625532 7.5617234zm6.60925532 8.8824255c-1.95778723 2.9378298-2.08244681 6.7149575-.42165957 9.7556171l7.8615957-11.7972766-4.210851-2.8051277zm2.77238303 17.6200851 10.5075957-15.7708723-4.4061702-2.9355319-8.56417023 12.8514255c-.01091489.0189575-.02412766.036766-.03676596.055149l-1.90780851 2.8625744c-.36478723.5480426-.48427659 1.2144256-.33606383 1.8762128.15223405.6772979.56297873 1.2684255 1.15812766 1.6636596 1.215.8105744 2.82351067.538851 3.58525537-.6026171zm12.9289787-7.162468 3.2279361-4.8450639-4.2148723-2.808-7.8615957 11.799c3.446234.3642128 6.8878723-1.2058085 8.8485319-4.1459361zm15.4554893-6.7971064c-.0132127-1.7854468-1.7670638-6.2077021-2.9315106-8.8933404l-5.2701702 7.9104255c1.3224255 4.2183191 3.0377872 8.9278085 3.7868936 10.017 1.2511915-.8318298 4.4337447-6.5529575 4.4147872-9.0340851zm-13.2156383-14.1594894c-1.502234-1.0012979-2.5253617-2.5270851-2.879234-4.2958723-.3544468-1.7693617.0017234-3.5708936 1.0030213-5.0725532.999-1.5016596 2.5236383-2.5236383 4.2935744-2.8780851 1.7670639-.3544468 3.5703192.0005744 5.0725532 1.0012979 3.0986809 2.0652127 3.942 6.2680212 1.8796596 9.369l-.0005745.0005744c-1.3023191 1.9514681-3.4496808 3.0079149-5.6343829 3.0079149-1.2868086 0-2.5868298-.3665106-3.7346171-1.1322766zm-.4417659-8.4136596c-.7468085 1.1196383-1.0122128 2.4610213-.7479575 3.78.2636809 1.3178298 1.026 2.4541277 2.1456383 3.2003617 2.3059149 1.5372766 5.436766.9122554 6.9786383-1.3982553 1.5361277-2.3105106.9082341-5.4407872-1.4005532-6.9792127-.835851-.5572341-1.7969361-.8456171-2.779851-.8456171-.3314681 0-.6658085.0327447-.999.099383-1.3178298.2642553-2.4529787 1.0254255-3.1969149 2.1433404z" fill="#ffffff" fill-rule="evenodd" transform="translate(14)"/></svg>
