<svg height="54" viewBox="0 0 72 54" width="72" xmlns="http://www.w3.org/2000/svg"><g fill="#ffffff" fill-rule="evenodd" transform="translate(17)"><path d="m32.0838158.17834211h-25.79707896c-3.39347368 0-6.15528947 2.76039473-6.15528947 6.15244736v41.33771053c0 3.3927632 2.76181579 6.1524474 6.15528947 6.1524474h25.79707896c3.3927631 0 6.1531579-2.7596842 6.1531579-6.1524474v-41.33771053c0-3.39276315-2.7596842-6.15244736-6.1531579-6.15244736zm4.0215789 47.49015789c0 2.2175526-1.8040263 4.0208684-4.0215789 4.0208684h-25.79707896c-2.21897368 0-4.02371052-1.8040263-4.02371052-4.0208684v-41.33771053c0-2.2168421 1.80473684-4.02086842 4.02371052-4.02086842h25.79707896c2.2175526 0 4.0215789 1.80402632 4.0215789 4.02086842z"/><path d="m26.8316053 6.12757895h-15.4368948c-.5883158 0-1.0657894.47747368-1.0657894 1.06578947 0 .58902632.4774736 1.06578947 1.0657894 1.06578947h15.4368948c.5883158 0 1.0657894-.47676315 1.0657894-1.06578947 0-.58831579-.4774736-1.06578947-1.0657894-1.06578947z"/><path d="m19.1913158 41.9118158c-.0049737 0-.0099474 0-.0149211 0-.8668421.0021316-1.6796842.3417631-2.2907368.9570789s-.9457105 1.4317106-.9421859 2.2964211c.0007385.864.3396596 1.6768421.9528438 2.2871842.6124737.6096316 1.4253158.945 2.2907368.945h.012079c.8668421-.0035526 1.6796842-.3446053 2.2900263-.9599211.6096316-.6153157.9435789-1.4317105.9393561-2.2978421-.0035929-.8647105-.3432245-1.6768421-.9578298-2.2871842-.6117631-.6067894-1.4210526-.9407368-2.2793684-.9407368zm1.1048684 3.2392895c.0014211.2962894-.1122631.5755263-.3211579.7858421-.2096052.2110263-.4888421.3275526-.784421.3289737-.2827895-.0035527-.579079-.1143948-.7893948-.3247106-.2096052-.2081842-.3254341-.4852894-.3254341-.7822894-.001408-.2977106.1129868-.5776579.322592-.7886843.2088948-.2103157.4881316-.3268421.7858421-.3275526h.0049737c.2934474 0 .5705526.1143947.7794474.3218684.2110263.2088948.3275526.4874211.3282631.7837106-.0007105.001421-.0007105.0021315-.0007105.0028421z"/></g></svg>
