<?xml version="1.0" encoding="UTF-8"?>
<svg width="32px" height="32px" viewBox="0 0 32 32" version="1.1" xmlns="http://www.w3.org/2000/svg" xmlns:xlink="http://www.w3.org/1999/xlink">
    <!-- Generator: Sketch 57.1 (83088) - https://sketch.com -->
    <title>Group 3</title>
    <desc>Created with Sketch.</desc>
    <g id="✔-Sites-Fertigstellung" stroke="none" stroke-width="1" fill="none" fill-rule="evenodd">
        <g id="Module---RQ-Kosmonaut-Website---Startseite" transform="translate(-1417.000000, -11429.000000)" fill="#FFFFFF" fill-rule="nonzero">
            <g id="Module" transform="translate(-3.000000, -0.036982)">
                <g id="Kosmonaut-Module/RQ" transform="translate(0.000000, 0.036982)">
                    <g id="RQ-072-/-Footer-/-Footer" transform="translate(0.000000, 11277.000000)">
                        <g id="Molecules/Footer/Desktop">
                            <g id="Stacked-Group" transform="translate(856.000000, 112.000000)">
                                <g id="Kosmonaut-Social_Media" transform="translate(468.000000, 0.000000)">
                                    <g id="Group-3" transform="translate(96.000000, 40.000000)">
                                        <path d="M22.4277101,1.56674673e-12 L9.51628986,1.56674673e-12 C4.26898551,1.56674673e-12 -2.52242671e-13,4.26898551 -2.52242671e-13,9.51628986 L-2.52242671e-13,22.4277101 C-2.52242671e-13,27.6750145 4.26898551,31.944 9.51628986,31.944 L22.4277101,31.944 C27.6750145,31.944 31.944,27.6750145 31.944,22.4277101 L31.944,9.51628986 C31.944,4.26898551 27.6749565,1.56674673e-12 22.4277101,1.56674673e-12 Z M28.7304348,22.4277101 C28.7304348,25.9085797 25.9085797,28.7304348 22.4277101,28.7304348 L9.51628986,28.7304348 C6.03542029,28.7304348 3.21356522,25.9085797 3.21356522,22.4277101 L3.21356522,9.51628986 C3.21356522,6.03536232 6.03542029,3.21356522 9.51628986,3.21356522 L22.4277101,3.21356522 C25.9085797,3.21356522 28.7304348,6.03536232 28.7304348,9.51628986 L28.7304348,22.4277101 L28.7304348,22.4277101 Z" id="Shape"></path>
                                        <path d="M16.5,8 C12.3644934,8 9,11.3645052 9,15.4999737 C9,19.6354422 12.3644934,23 16.5,23 C20.6355066,23 24,19.6354948 24,15.4999737 C24,11.3644525 20.6355066,8 16.5,8 Z M16.5,20 C14.0146986,20 12,17.9853014 12,15.5 C12,13.0146986 14.0147503,11 16.5,11 C18.9853014,11 21,13.0146986 21,15.5 C21,17.9852497 18.9852497,20 16.5,20 Z" id="Shape"></path>
                                    </g>
                                </g>
                            </g>
                        </g>
                    </g>
                </g>
            </g>
        </g>
    </g>
</svg>