<?xml version="1.0" encoding="UTF-8"?>
<svg width="240px" height="40px" viewBox="0 0 240 40" version="1.1" xmlns="http://www.w3.org/2000/svg">
    <g id="Symbol" stroke="none" stroke-width="1" fill="none" fill-rule="evenodd">
        <path d="M27.9462359,34.4583495 C22.8891761,37.2901942 16.6770921,37.2901942 11.6200323,34.4583495 L16.2044588,29.8665049 L18.7068174,27.3600971 C17.6111147,27.2039806 16.5429402,26.8090291 15.5864297,26.1740777 C15.1680775,25.8964078 14.7710501,25.573301 14.4023263,25.2043689 C14.0339903,24.8350485 13.7114055,24.4369903 13.4341842,24.0183495 C12.8006462,23.0599029 12.4059451,21.9903883 12.2504685,20.8925243 C12.1488853,20.1783495 12.1488853,19.4517476 12.2504685,18.7371845 C12.4059451,17.6393204 12.8006462,16.5698058 13.4341842,15.6113592 C13.7114055,15.1927184 14.0339903,14.7946602 14.4023263,14.4257282 C14.7710501,14.0564078 15.1680775,13.733301 15.5864297,13.4556311 C16.5429402,12.821068 17.6111147,12.4257282 18.7068174,12.27 C19.4206139,12.1682524 20.1456543,12.1682524 20.8594507,12.27 C21.9551535,12.4257282 23.0233279,12.821068 23.9798384,13.4556311 L26.1619386,11.27 L30.4951212,6.92980583 L32.6555089,4.76592233 C30.1438449,2.60553398 27.2192569,1.18106796 24.1628433,0.489029126 C21.2820679,-0.163009709 18.2842003,-0.163009709 15.4030372,0.489029126 C12.3466236,1.18106796 9.42242326,2.60553398 6.91075929,4.76592233 C6.52846527,5.09446602 6.1558643,5.44009709 5.79373183,5.80281553 C5.43159935,6.16553398 5.08652666,6.53873786 4.75812601,6.92126214 C2.60161551,9.43699029 1.179063,12.3663107 0.488529887,15.4280583 C-0.162843296,18.3134951 -0.162843296,21.3162136 0.488529887,24.2020388 C1.179063,27.2633981 2.60161551,30.1927184 4.75812601,32.7084466 L6.91890145,30.5441748 C6.24659128,29.7371845 5.66074313,28.8824272 5.16329564,27.9915534 C2.33602585,22.9259223 2.33602585,16.7037864 5.16329564,11.6385437 C5.66074313,10.7472816 6.24659128,9.89252427 6.91890145,9.08553398 C7.24148627,8.69834951 7.58306947,8.32203883 7.94597738,7.95854369 C8.3088853,7.59504854 8.68458805,7.25291262 9.07114701,6.92980583 C9.8768336,6.25640777 10.73021,5.66961165 11.6200323,5.17135922 C16.6770921,2.33951456 22.8891761,2.33951456 27.9462359,5.17135922 L23.3618094,9.76359223 C21.0513732,8.94029126 18.514895,8.94029126 16.2044588,9.76359223 C15.217706,10.1150485 14.2728271,10.6175728 13.4043296,11.27 C13.0022617,11.5717476 12.6157027,11.9037864 12.2504685,12.27 C11.8848465,12.6362136 11.5533441,13.0230097 11.252084,13.4257282 C10.6007108,14.2956311 10.0989984,15.2420388 9.74772213,16.2303883 C8.92575121,18.5445631 8.92575121,21.0851456 9.74772213,23.398932 C10.0989984,24.3876699 10.6007108,25.3340777 11.252084,26.2039806 C11.5533441,26.606699 11.8848465,26.9934951 12.2504685,27.3600971 C12.6157027,27.7259223 13.0022617,28.0583495 13.4043296,28.3600971 L9.07114701,32.6999029 L6.91075929,34.8641748 C9.42242326,37.0237864 12.3466236,38.4486408 15.4030372,39.141068 C18.2842003,39.7927184 21.2820679,39.7927184 24.163231,39.141068 C27.2192569,38.4486408 30.1438449,37.0237864 32.6555089,34.8641748 L30.4951212,32.6999029 C29.6894346,33.373301 28.8360582,33.9604854 27.9462359,34.4583495"
              id="Fill-1" fill="#B08770"></path>
        <path d="M20.8593344,20.8926408 C20.2649564,21.4879806 19.3010792,21.4879806 18.7070889,20.8926408 C18.1127108,20.2976893 18.1127108,19.3322524 18.7070889,18.7369126 C19.3010792,18.1419612 20.2649564,18.1419612 20.8593344,18.7369126 C21.4537124,19.3322524 21.4537124,20.2976893 20.8593344,20.8926408 M23.9033409,17.8437087 C23.685441,17.3873981 23.3888336,16.9594369 23.01158,16.5811845 C22.6339386,16.2033204 22.2066688,15.906233 21.7510953,15.6883689 C20.509609,15.0941942 19.0568142,15.0941942 17.8153279,15.6883689 C17.3597544,15.906233 16.9324847,16.2033204 16.5548433,16.5811845 C16.1772019,16.9594369 15.8805945,17.3873981 15.6630824,17.8437087 C15.0702553,19.0872039 15.0702553,20.5427379 15.6630824,21.7858447 C15.8805945,22.2425437 16.1772019,22.6705049 16.5548433,23.0483689 C16.9324847,23.426233 17.3597544,23.7237087 17.8153279,23.9415728 C19.0568142,24.5353592 20.509609,24.5353592 21.7510953,23.9415728 C22.2066688,23.7237087 22.6339386,23.426233 23.01158,23.0483689 C23.3888336,22.6705049 23.685441,22.2425437 23.9033409,21.7858447 C24.4957803,20.5427379 24.4957803,19.0872039 23.9033409,17.8437087"
              id="Fill-4" fill="#B08770"></path>
        <path d="M29.8184297,23.3990874 C30.6404006,21.085301 30.6404006,18.5447184 29.8184297,16.2305437 L34.4032439,11.6383107 C37.230126,16.7039417 37.230126,22.9256893 34.4032439,27.9913204 L29.8184297,23.3990874 Z M39.077622,15.4278252 C38.3870889,12.366466 36.9645363,9.43714563 34.8080258,6.92141748 L32.6472504,9.08568932 L28.3144556,13.4254951 L26.1319677,15.6115146 C26.7655057,16.5695728 27.1605945,17.6394757 27.3160711,18.7369515 C27.4176543,19.4515146 27.4176543,20.1781165 27.3160711,20.8926796 C27.1605945,21.9901553 26.7655057,23.0600583 26.1319677,24.0185049 L28.3144556,26.2041359 L32.6472504,30.5439417 L34.8080258,32.7086019 C36.9645363,30.1924854 38.3870889,27.263165 39.077622,24.2018058 C39.7289952,21.3163689 39.7289952,18.3136505 39.077622,15.4278252 L39.077622,15.4278252 Z"
              id="Fill-6" fill="#B08770"></path>
        <polygon id="Fill-8" fill="#2D374B"
                 points="51.9454604 9.60549515 55.3791276 9.60549515 55.3791276 19.4478252 64.6751535 9.60549515 68.9183845 9.60549515 60.7669144 18.0218058 69.2812924 29.1783107 65.0938934 29.1783107 58.4219709 20.3705437 55.3791276 23.5018058 55.3791276 29.1783107 51.9454604 29.1783107"></polygon>
        <path d="M80.0852084,26.3261165 C81.0525751,26.3261165 81.941622,26.1443689 82.7511858,25.7800971 C83.5607496,25.4154369 84.2539968,24.9257282 84.8309273,24.3090291 C85.4078578,23.6927184 85.8591664,22.9641748 86.184853,22.1237864 C86.5101519,21.2833981 86.6733829,20.386699 86.6733829,19.4336893 L86.6733829,19.377767 C86.6733829,18.425534 86.5101519,17.5241748 86.184853,16.674466 C85.8591664,15.8243689 85.4032052,15.0868932 84.8169693,14.4608738 C84.2307334,13.8352427 83.5281809,13.3354369 82.7096995,12.9618447 C81.8900549,12.5886408 80.9971309,12.4014563 80.0293764,12.4014563 C79.0612342,12.4014563 78.1729628,12.5835922 77.363399,12.9482524 C76.5542229,13.3125243 75.860588,13.8076699 75.2836575,14.4329126 C74.706727,15.0585437 74.2550307,15.7917476 73.9297318,16.6325243 C73.6040452,17.4729126 73.4412019,18.3696117 73.4412019,19.3218447 L73.4412019,19.377767 C73.4412019,20.3307767 73.6040452,21.2270874 73.9297318,22.0674757 C74.2550307,22.9082524 74.7113796,23.6461165 75.2976155,24.2806796 C75.8838514,24.9164078 76.5864039,25.4154369 77.405273,25.7800971 C78.2241422,26.1443689 79.117454,26.3261165 80.0852084,26.3261165 M80.0293764,29.5136893 C78.5219128,29.5136893 77.144336,29.2480583 75.8978094,28.7167961 C74.6505073,28.185534 73.5811696,27.4635922 72.6874701,26.5498058 C71.7941583,25.6371845 71.0962585,24.5696117 70.5941583,23.3482524 C70.0916704,22.1272816 69.8400388,20.8274757 69.8400388,19.4476699 L69.8400388,19.3917476 C69.8400388,18.0127184 70.0916704,16.7125243 70.5941583,15.491165 C71.0962585,14.2705825 71.8034637,13.1983495 72.7153861,12.2756311 C73.6273086,11.3529126 74.706727,10.6216505 75.9536414,10.0806796 C77.2005557,9.54048544 78.5777447,9.26980583 80.0852084,9.26980583 C81.5926721,9.26980583 82.9694733,9.53543689 84.2167754,10.066699 C85.4633021,10.5979612 86.5338029,11.3206796 87.4275024,12.2336893 C88.3204265,13.1470874 89.0183263,14.2146602 89.5208142,15.4352427 C90.0233021,16.6566019 90.274546,17.9567961 90.274546,19.3358252 L90.274546,19.3917476 C90.274546,20.771165 90.0233021,22.0717476 89.5208142,23.2923301 C89.0183263,24.5136893 88.3111212,25.585534 87.3991987,26.5078641 C86.4872763,27.4309709 85.4078578,28.1626214 84.1609435,28.7028155 C82.9140291,29.2433981 81.5368401,29.5136893 80.0293764,29.5136893"
              id="Fill-10" fill="#2D374B"></path>
        <path d="M101.133906,29.4579612 C99.6264426,29.4579612 98.1841163,29.2012621 96.8069273,28.6894175 C95.4293506,28.1764078 94.1549079,27.388835 92.9824362,26.3263107 L95.0482197,23.8657282 C95.9973635,24.6859223 96.9604653,25.3154369 97.937525,25.7531068 C98.9145848,26.1915534 100.007574,26.4098058 101.217654,26.4098058 C102.278462,26.4098058 103.120207,26.1818447 103.743664,25.7251456 C104.367509,25.2684466 104.679237,24.6766019 104.679237,23.9492233 L104.679237,23.8936893 C104.679237,23.5399029 104.618365,23.2272816 104.497784,22.9569903 C104.376426,22.686699 104.153099,22.4303883 103.8278,22.1880583 C103.501725,21.9461165 103.055069,21.7224272 102.487832,21.5169903 C101.919819,21.3119417 101.180045,21.1072816 100.268511,20.9018447 C99.2259257,20.6599029 98.3000452,20.3845631 97.4908691,20.0769903 C96.6813053,19.7694175 96.0016284,19.3966019 95.4530016,18.9585437 C94.9039871,18.5204854 94.4852472,17.9845631 94.1963942,17.3507767 C93.9079289,16.7169903 93.764084,15.9527184 93.764084,15.0579612 L93.764084,15.0020388 C93.764084,14.1632039 93.93158,13.3942718 94.2665719,12.6952427 C94.6015638,11.9962136 95.0621777,11.3997087 95.6484136,10.9057282 C96.2346494,10.4121359 96.9368142,10.0249515 97.7560711,9.74533981 C98.5745525,9.46572816 99.4678643,9.32592233 100.436006,9.32592233 C101.869027,9.32592233 103.157816,9.53563107 104.302372,9.95504854 C105.446927,10.374466 106.521693,10.9853398 107.526669,11.7865049 L105.684213,14.3868932 C104.790901,13.734466 103.906507,13.2362136 103.032194,12.8909709 C102.157105,12.5461165 101.273486,12.3736893 100.380174,12.3736893 C99.3751987,12.3736893 98.5935509,12.5973786 98.035231,13.0447573 C97.4769111,13.4921359 97.1977512,14.0420388 97.1977512,14.694466 L97.1977512,14.7503883 C97.1977512,15.1232039 97.2628885,15.4540777 97.3931632,15.7430097 C97.5230501,16.0323301 97.7653764,16.2929126 98.118979,16.5259223 C98.4721939,16.758932 98.9467658,16.9779612 99.5426947,17.1830097 C100.138236,17.3880583 100.910578,17.6024272 101.859722,17.8261165 C102.882921,18.0874757 103.785926,18.3760194 104.567186,18.6929126 C105.349221,19.0101942 106.004859,19.3966019 106.535651,19.853301 C107.066055,20.31 107.461144,20.8416505 107.722081,21.4470874 C107.982242,22.053301 108.112905,22.7569903 108.112905,23.5581553 L108.112905,23.6140777 C108.112905,24.5274757 107.940756,25.3476699 107.596459,26.0746602 C107.251774,26.8012621 106.772937,27.4164078 106.158785,27.9200971 C105.544633,28.4233981 104.809124,28.805534 103.953034,29.0661165 C103.096943,29.3270874 102.157105,29.4579612 101.133906,29.4579612"
              id="Fill-12" fill="#2D374B"></path>
        <polygon id="Fill-14" fill="#2D374B"
                 points="112.160879 9.60549515 115.817874 9.60549515 121.763981 18.8606408 127.710087 9.60549515 131.366695 9.60549515 131.366695 29.1783107 127.933415 29.1783107 127.933415 15.1418058 121.763981 24.3689903 121.651929 24.3689903 115.538714 15.1977282 115.538714 29.1783107 112.160879 29.1783107"></polygon>
        <path d="M145.771192,26.3261165 C146.738559,26.3261165 147.627606,26.1443689 148.43717,25.7800971 C149.246733,25.4154369 149.939981,24.9257282 150.516911,24.3090291 C151.093842,23.6927184 151.54515,22.9641748 151.870837,22.1237864 C152.196136,21.2833981 152.359367,20.386699 152.359367,19.4336893 L152.359367,19.377767 C152.359367,18.425534 152.196136,17.5241748 151.870837,16.674466 C151.54515,15.8243689 151.089189,15.0868932 150.502953,14.4608738 C149.916717,13.8352427 149.214165,13.3354369 148.395683,12.9618447 C147.576039,12.5886408 146.683115,12.4014563 145.71536,12.4014563 C144.747218,12.4014563 143.858947,12.5835922 143.049383,12.9482524 C142.240207,13.3125243 141.546572,13.8076699 140.969641,14.4329126 C140.392711,15.0585437 139.941015,15.7917476 139.615716,16.6325243 C139.290029,17.4729126 139.127186,18.3696117 139.127186,19.3218447 L139.127186,19.377767 C139.127186,20.3307767 139.290029,21.2270874 139.615716,22.0674757 C139.941015,22.9082524 140.397363,23.6461165 140.983599,24.2806796 C141.569835,24.9164078 142.272388,25.4154369 143.091257,25.7800971 C143.910126,26.1443689 144.803438,26.3261165 145.771192,26.3261165 M145.71536,29.5136893 C144.207897,29.5136893 142.83032,29.2480583 141.583793,28.7167961 C140.336491,28.185534 139.267153,27.4635922 138.373454,26.5498058 C137.480142,25.6371845 136.782242,24.5696117 136.280142,23.3482524 C135.777654,22.1272816 135.526023,20.8274757 135.526023,19.4476699 L135.526023,19.3917476 C135.526023,18.0127184 135.777654,16.7125243 136.280142,15.491165 C136.782242,14.2705825 137.489447,13.1983495 138.40137,12.2756311 C139.313292,11.3529126 140.392711,10.6216505 141.639625,10.0806796 C142.88654,9.54048544 144.263729,9.26980583 145.771192,9.26980583 C147.278656,9.26980583 148.655457,9.53543689 149.902759,10.066699 C151.149286,10.5979612 152.219787,11.3206796 153.113486,12.2336893 C154.00641,13.1470874 154.70431,14.2146602 155.206798,15.4352427 C155.709286,16.6566019 155.96053,17.9567961 155.96053,19.3358252 L155.96053,19.3917476 C155.96053,20.771165 155.709286,22.0717476 155.206798,23.2923301 C154.70431,24.5136893 153.997105,25.585534 153.085183,26.5078641 C152.17326,27.4309709 151.093842,28.1626214 149.846927,28.7028155 C148.600013,29.2433981 147.222824,29.5136893 145.71536,29.5136893"
              id="Fill-16" fill="#2D374B"></path>
        <polygon id="Fill-18" fill="#2D374B"
                 points="160.120323 9.60549515 163.302746 9.60549515 173.771244 23.138699 173.771244 9.60549515 177.149079 9.60549515 177.149079 29.1783107 174.273732 29.1783107 163.498158 15.2536505 163.498158 29.1783107 160.120323 29.1783107"></polygon>
        <path d="M194.009641,21.4050291 L190.631806,13.5759029 L187.281887,21.4050291 L194.009641,21.4050291 Z M189.096426,9.46561165 L192.27885,9.46561165 L200.876976,29.1786214 L197.248284,29.1786214 L195.265861,24.4531845 L186.025667,24.4531845 L184.016103,29.1786214 L180.4983,29.1786214 L189.096426,9.46561165 Z"
              id="Fill-20" fill="#2D374B"></path>
        <path d="M212.23863,29.4856505 C210.972717,29.4856505 209.828549,29.3042913 208.805351,28.9407961 C207.781376,28.5769126 206.906675,28.0316699 206.180859,27.305068 C205.455431,26.5780777 204.896724,25.6786602 204.506288,24.6068155 C204.115464,23.5349709 203.920052,22.290699 203.920052,20.8736117 L203.920052,9.60565049 L207.353331,9.60565049 L207.353331,20.7341942 C207.353331,22.5613786 207.790294,23.945068 208.665383,24.8860388 C209.540084,25.8277864 210.749777,26.298466 212.29485,26.298466 C213.820536,26.298466 215.020924,25.8464272 215.896013,24.9423495 C216.770326,24.0382718 217.207677,22.681767 217.207677,20.8736117 L217.207677,9.60565049 L220.641732,9.60565049 L220.641732,20.706233 C220.641732,22.1602136 220.441279,23.4371068 220.04115,24.5365243 C219.641021,25.6371068 219.078436,26.5547767 218.35262,27.2910874 C217.626417,28.0273981 216.747451,28.5769126 215.714559,28.9407961 C214.681667,29.3042913 213.523153,29.4856505 212.23863,29.4856505"
              id="Fill-22" fill="#2D374B"></path>
        <polygon id="Fill-24" fill="#2D374B"
                 points="230.160582 12.793068 223.963231 12.793068 223.963231 9.60549515 239.819515 9.60549515 239.819515 12.793068 233.622165 12.793068 233.622165 29.1783107 230.160582 29.1783107"></polygon>
    </g>
</svg>
