<?xml version="1.0" encoding="UTF-8"?>
<svg width="144px" height="24px" viewBox="0 0 144 24" version="1.1" xmlns="http://www.w3.org/2000/svg">
    <g id="Symbol" stroke="none" stroke-width="1" fill="#FFFFFF" fill-rule="evenodd">
        <path d="M16.7677415,20.6750097 C13.7335057,22.3741165 10.0062553,22.3741165 6.97201939,20.6750097 L9.72267528,17.9199029 L11.2240905,16.4160583 C10.5666688,16.3223883 9.92576414,16.0854175 9.35185784,15.7044466 C9.10084653,15.5378447 8.86263005,15.3439806 8.6413958,15.1226214 C8.42039418,14.9010291 8.2268433,14.6621942 8.0605105,14.4110097 C7.68038772,13.8359417 7.44356704,13.194233 7.3502811,12.5355146 C7.28933118,12.1070097 7.28933118,11.6710485 7.3502811,11.2423107 C7.44356704,10.5835922 7.68038772,9.9418835 8.0605105,9.36681553 C8.2268433,9.11563107 8.42039418,8.87679612 8.6413958,8.65543689 C8.86263005,8.43384466 9.10084653,8.23998058 9.35185784,8.07337864 C9.92576414,7.69264078 10.5666688,7.45543689 11.2240905,7.362 C11.6523683,7.30095146 12.0873926,7.30095146 12.5156704,7.362 C13.1730921,7.45543689 13.8139968,7.69264078 14.3879031,8.07337864 L15.6971632,6.762 L18.2970727,4.1578835 L19.5933053,2.8595534 C18.0863069,1.56332039 16.3315541,0.708640777 14.497706,0.293417476 C12.7692407,-0.0978058252 10.9705202,-0.0978058252 9.24182229,0.293417476 C7.40797415,0.708640777 5.65345396,1.56332039 4.14645557,2.8595534 C3.91707916,3.05667961 3.69351858,3.26405825 3.4762391,3.48168932 C3.25895961,3.69932039 3.05191599,3.92324272 2.85487561,4.15275728 C1.56096931,5.66219417 0.707437803,7.41978641 0.293117932,9.25683495 C-0.0977059774,10.9880971 -0.0977059774,12.7897282 0.293117932,14.5212233 C0.707437803,16.3580388 1.56096931,18.1156311 2.85487561,19.625068 L4.15134087,18.3265049 C3.74795477,17.8423107 3.39644588,17.3294563 3.09797738,16.794932 C1.40161551,13.7555534 1.40161551,10.0222718 3.09797738,6.98312621 C3.39644588,6.44836893 3.74795477,5.93551456 4.15134087,5.45132039 C4.34489176,5.21900971 4.54984168,4.9932233 4.76758643,4.77512621 C4.98533118,4.55702913 5.21075283,4.35174757 5.44268821,4.1578835 C5.92610016,3.75384466 6.43812601,3.40176699 6.97201939,3.10281553 C10.0062553,1.40370874 13.7335057,1.40370874 16.7677415,3.10281553 L14.0170856,5.85815534 C12.6308239,5.36417476 11.108937,5.36417476 9.72267528,5.85815534 C9.13062359,6.06902913 8.56369628,6.37054369 8.04259774,6.762 C7.80135703,6.94304854 7.56942165,7.14227184 7.3502811,7.362 C7.13090792,7.58172816 6.93200646,7.81380583 6.7512504,8.05543689 C6.36042649,8.57737864 6.05939903,9.1452233 5.84863328,9.73823301 C5.35545073,11.1267379 5.35545073,12.6510874 5.84863328,14.0393592 C6.05939903,14.6326019 6.36042649,15.2004466 6.7512504,15.7223883 C6.93200646,15.9640194 7.13090792,16.1960971 7.3502811,16.4160583 C7.56942165,16.6355534 7.80135703,16.8350097 8.04259774,17.0160583 L5.44268821,19.6199417 L4.14645557,20.9185049 C5.65345396,22.2142718 7.40797415,23.0691845 9.24182229,23.4846408 C10.9705202,23.8756311 12.7692407,23.8756311 14.4979386,23.4846408 C16.3315541,23.0691845 18.0863069,22.2142718 19.5933053,20.9185049 L18.2970727,19.6199417 C17.8136607,20.0239806 17.3016349,20.3762913 16.7677415,20.6750097"
              id="Fill-1"></path>
        <path d="M12.5156006,12.5355845 C12.1589738,12.8927883 11.5806475,12.8927883 11.2242533,12.5355845 C10.8676265,12.1786136 10.8676265,11.5993515 11.2242533,11.2421476 C11.5806475,10.8851767 12.1589738,10.8851767 12.5156006,11.2421476 C12.8722275,11.5993515 12.8722275,12.1786136 12.5156006,12.5355845 M14.3420045,10.7062252 C14.2112646,10.4324388 14.0333002,10.1756621 13.806948,9.94871068 C13.5803632,9.72199223 13.3240013,9.54373981 13.0506572,9.41302136 C12.3057654,9.0565165 11.4340885,9.0565165 10.6891968,9.41302136 C10.4158527,9.54373981 10.1594908,9.72199223 9.93290598,9.94871068 C9.70632116,10.1756621 9.5283567,10.4324388 9.39784943,10.7062252 C9.04215315,11.4523223 9.04215315,12.3256427 9.39784943,13.0715068 C9.5283567,13.3455262 9.70632116,13.6023029 9.93290598,13.8290214 C10.1594908,14.0557398 10.4158527,14.2342252 10.6891968,14.3649437 C11.4340885,14.7212155 12.3057654,14.7212155 13.0506572,14.3649437 C13.3240013,14.2342252 13.5803632,14.0557398 13.806948,13.8290214 C14.0333002,13.6023029 14.2112646,13.3455262 14.3420045,13.0715068 C14.6974682,12.3256427 14.6974682,11.4523223 14.3420045,10.7062252"
              id="Fill-4"></path>
        <path d="M17.8910578,14.0394524 C18.3842404,12.6511806 18.3842404,11.1268311 17.8910578,9.73832621 L20.6419464,6.98298641 C22.3380756,10.022365 22.3380756,13.7554136 20.6419464,16.7947922 L17.8910578,14.0394524 Z M23.4465732,9.25669515 C23.0322533,7.41987961 22.1787218,5.66228738 20.8848155,4.15285049 L19.5883502,5.45141359 L16.9886733,8.05529709 L15.6791806,9.36690874 C16.0593034,9.94174369 16.2963567,10.5836854 16.3896426,11.2421709 C16.4505926,11.6709087 16.4505926,12.1068699 16.3896426,12.5356078 C16.2963567,13.1940932 16.0593034,13.836035 15.6791806,14.4111029 L16.9886733,15.7224816 L19.5883502,18.326365 L20.8848155,19.6251612 C22.1787218,18.1154913 23.0322533,16.357899 23.4465732,14.5210835 C23.8373971,12.7898214 23.8373971,10.9881903 23.4465732,9.25669515 L23.4465732,9.25669515 Z"
              id="Fill-6"></path>
        <polygon id="Fill-8"
                 points="31.1672763 5.76329709 33.2274766 5.76329709 33.2274766 11.6686951 38.8050921 5.76329709 41.3510307 5.76329709 36.4601486 10.8130835 41.5687754 17.5069864 39.056336 17.5069864 35.0531826 12.2223262 33.2274766 14.1010835 33.2274766 17.5069864 31.1672763 17.5069864"></polygon>
        <path d="M48.051125,15.7956699 C48.6315451,15.7956699 49.1649732,15.6866214 49.6507115,15.4680583 C50.1364498,15.2492621 50.5523981,14.9554369 50.8985564,14.5854175 C51.2447147,14.2156311 51.5154998,13.7785049 51.7109118,13.2742718 C51.9060911,12.7700388 52.0040297,12.2320194 52.0040297,11.6602136 L52.0040297,11.6266602 C52.0040297,11.0553204 51.9060911,10.5145049 51.7109118,10.0046796 C51.5154998,9.49462136 51.2419231,9.05213592 50.8901816,8.67652427 C50.5384401,8.30114563 50.1169086,8.00126214 49.6258197,7.7771068 C49.134033,7.55318447 48.5982785,7.44087379 48.0176258,7.44087379 C47.4367405,7.44087379 46.9037777,7.55015534 46.4180394,7.76895146 C45.9325338,7.98751456 45.5163528,8.28460194 45.1701945,8.65974757 C44.8240362,9.03512621 44.5530184,9.47504854 44.3578391,9.97951456 C44.1624271,10.4837476 44.0647212,11.021767 44.0647212,11.5931068 L44.0647212,11.6266602 C44.0647212,12.198466 44.1624271,12.7362524 44.3578391,13.2404854 C44.5530184,13.7449515 44.8268278,14.1876699 45.1785693,14.5684078 C45.5303108,14.9498447 45.9518423,15.2492621 46.4431638,15.4680583 C46.9344853,15.6866214 47.4704724,15.7956699 48.051125,15.7956699 M48.0176258,17.7082136 C47.1131477,17.7082136 46.2866016,17.548835 45.5386856,17.2300777 C44.7903044,16.9113204 44.1487018,16.4781553 43.6124821,15.9298835 C43.076495,15.3823107 42.6577551,14.741767 42.356495,14.0089515 C42.0550023,13.2763689 41.9040233,12.4964854 41.9040233,11.6686019 L41.9040233,11.6350485 C41.9040233,10.8076311 42.0550023,10.0275146 42.356495,9.29469903 C42.6577551,8.56234951 43.0820782,7.91900971 43.6292317,7.36537864 C44.1763851,6.81174757 44.8240362,6.37299029 45.5721848,6.04840777 C46.3203334,5.72429126 47.1466468,5.5618835 48.051125,5.5618835 C48.9556032,5.5618835 49.781684,5.72126214 50.5300653,6.04001942 C51.2779813,6.3587767 51.9202817,6.79240777 52.4565015,7.34021359 C52.9922559,7.88825243 53.4109958,8.52879612 53.7124885,9.26114563 C54.0139813,9.99396117 54.1647276,10.7740777 54.1647276,11.6014951 L54.1647276,11.6350485 C54.1647276,12.462699 54.0139813,13.2430485 53.7124885,13.9753981 C53.4109958,14.7082136 52.9866727,15.3513204 52.4395192,15.9047184 C51.8923658,16.4585825 51.2447147,16.8975728 50.4965661,17.2216893 C49.7484174,17.5460388 48.922104,17.7082136 48.0176258,17.7082136"
              id="Fill-10"></path>
        <path d="M60.6803438,17.6747767 C59.7758656,17.6747767 58.9104698,17.5207573 58.0841564,17.2136505 C57.2576103,16.9058447 56.4929447,16.433301 55.7894617,15.7957864 L57.0289318,14.3194369 C57.5984181,14.8115534 58.1762792,15.1892621 58.762515,15.4518641 C59.3487509,15.714932 60.0045441,15.8458835 60.7305926,15.8458835 C61.3670772,15.8458835 61.8721241,15.7091068 62.2461984,15.4350874 C62.6205053,15.161068 62.8075425,14.8059612 62.8075425,14.369534 L62.8075425,14.3362136 C62.8075425,14.1239417 62.7710191,13.9363689 62.6986701,13.7741942 C62.6258559,13.6120194 62.4918591,13.458233 62.2966798,13.312835 C62.1010352,13.1676699 61.8330417,13.0334563 61.4926992,12.9101942 C61.1518914,12.787165 60.7080271,12.6643689 60.1611063,12.5411068 C59.5355554,12.3959417 58.9800271,12.2307379 58.4945215,12.0461942 C58.0087832,11.8616505 57.6009771,11.6379612 57.271801,11.3751262 C56.9423922,11.1122913 56.6911483,10.7907379 56.5178365,10.410466 C56.3447574,10.0301942 56.2584504,9.57163107 56.2584504,9.0347767 L56.2584504,9.0012233 C56.2584504,8.49792233 56.358948,8.03656311 56.5599431,7.61714563 C56.7609383,7.19772816 57.0373066,6.83982524 57.3890481,6.54343689 C57.7407897,6.24728155 58.1620885,6.01497087 58.6536426,5.84720388 C59.1447315,5.67943689 59.6807186,5.5955534 60.2616039,5.5955534 C61.1214165,5.5955534 61.8946895,5.72137864 62.5814229,5.97302913 C63.2681564,6.22467961 63.9130158,6.59120388 64.5160013,7.07190291 L63.4105279,8.63213592 C62.8745409,8.24067961 62.3439044,7.94172816 61.8193163,7.73458252 C61.294263,7.5276699 60.7640918,7.42421359 60.2281047,7.42421359 C59.6251192,7.42421359 59.1561305,7.55842718 58.8211386,7.82685437 C58.4861467,8.09528155 58.3186507,8.4252233 58.3186507,8.81667961 L58.3186507,8.85023301 C58.3186507,9.07392233 58.3577331,9.2724466 58.4358979,9.44580583 C58.51383,9.61939806 58.6592258,9.77574757 58.8713874,9.9155534 C59.0833163,10.0553592 59.3680595,10.1867767 59.7256168,10.3098058 C60.0829415,10.432835 60.546347,10.5614563 61.1158333,10.6956699 C61.7297525,10.8524854 62.2715554,11.0256117 62.7403115,11.2157476 C63.2095328,11.4061165 63.6029157,11.6379612 63.9213906,11.9119806 C64.239633,12.186 64.4766863,12.5049903 64.6332485,12.8682524 C64.7893454,13.2319806 64.8677428,13.6541942 64.8677428,14.1348932 L64.8677428,14.1684466 C64.8677428,14.7164854 64.7644536,15.2086019 64.5578753,15.6447961 C64.3510643,16.0807573 64.0637622,16.4498447 63.6952711,16.7520583 C63.32678,17.0540388 62.8854746,17.2833204 62.3718204,17.4396699 C61.8581661,17.5962524 61.294263,17.6747767 60.6803438,17.6747767"
              id="Fill-12"></path>
        <polygon id="Fill-14"
                 points="67.2965273 5.76329709 69.4907244 5.76329709 73.0583884 11.3163845 76.6260523 5.76329709 78.8200168 5.76329709 78.8200168 17.5069864 76.7600491 17.5069864 76.7600491 9.0850835 73.0583884 14.6213942 72.9911574 14.6213942 69.3232284 9.11863689 69.3232284 17.5069864 67.2965273 17.5069864"></polygon>
        <path d="M87.4627153,15.7956699 C88.0431354,15.7956699 88.5765635,15.6866214 89.0623018,15.4680583 C89.5480401,15.2492621 89.9639884,14.9554369 90.3101467,14.5854175 C90.656305,14.2156311 90.9270901,13.7785049 91.1225021,13.2742718 C91.3176814,12.7700388 91.41562,12.2320194 91.41562,11.6602136 L91.41562,11.6266602 C91.41562,11.0553204 91.3176814,10.5145049 91.1225021,10.0046796 C90.9270901,9.49462136 90.6535134,9.05213592 90.3017719,8.67652427 C89.9500304,8.30114563 89.5284989,8.00126214 89.03741,7.7771068 C88.5456233,7.55318447 88.0098688,7.44087379 87.4292162,7.44087379 C86.8483309,7.44087379 86.315368,7.55015534 85.8296297,7.76895146 C85.3441241,7.98751456 84.9279431,8.28460194 84.5817848,8.65974757 C84.2356265,9.03512621 83.9646087,9.47504854 83.7694294,9.97951456 C83.5740174,10.4837476 83.4763115,11.021767 83.4763115,11.5931068 L83.4763115,11.6266602 C83.4763115,12.198466 83.5740174,12.7362524 83.7694294,13.2404854 C83.9646087,13.7449515 84.2384181,14.1876699 84.5901596,14.5684078 C84.9419011,14.9498447 85.3634326,15.2492621 85.8547541,15.4680583 C86.3460756,15.6866214 86.8820627,15.7956699 87.4627153,15.7956699 M87.4292162,17.7082136 C86.524738,17.7082136 85.6981919,17.548835 84.9502759,17.2300777 C84.2018947,16.9113204 83.5602921,16.4781553 83.0240724,15.9298835 C82.4880853,15.3823107 82.0693454,14.741767 81.7680853,14.0089515 C81.4665926,13.2763689 81.3156136,12.4964854 81.3156136,11.6686019 L81.3156136,11.6350485 C81.3156136,10.8076311 81.4665926,10.0275146 81.7680853,9.29469903 C82.0693454,8.56234951 82.4936685,7.91900971 83.040822,7.36537864 C83.5879754,6.81174757 84.2356265,6.37299029 84.9837751,6.04840777 C85.7319237,5.72429126 86.5582372,5.5618835 87.4627153,5.5618835 C88.3671935,5.5618835 89.1932743,5.72126214 89.9416556,6.04001942 C90.6895716,6.3587767 91.3318721,6.79240777 91.8680918,7.34021359 C92.4038462,7.88825243 92.8225861,8.52879612 93.1240788,9.26114563 C93.4255716,9.99396117 93.5763179,10.7740777 93.5763179,11.6014951 L93.5763179,11.6350485 C93.5763179,12.462699 93.4255716,13.2430485 93.1240788,13.9753981 C92.8225861,14.7082136 92.398263,15.3513204 91.8511095,15.9047184 C91.3039561,16.4585825 90.656305,16.8975728 89.9081564,17.2216893 C89.1600078,17.5460388 88.3336943,17.7082136 87.4292162,17.7082136"
              id="Fill-16"></path>
        <polygon id="Fill-18"
                 points="96.0721939 5.76329709 97.9816478 5.76329709 104.262746 13.8832194 104.262746 5.76329709 106.289447 5.76329709 106.289447 17.5069864 104.564239 17.5069864 98.098895 9.15219029 98.098895 17.5069864 96.0721939 17.5069864"></polygon>
        <path d="M116.405785,12.8430175 L114.379084,8.14554175 L112.369132,12.8430175 L116.405785,12.8430175 Z M113.457856,5.67936699 L115.36731,5.67936699 L120.526185,17.5071728 L118.348971,17.5071728 L117.159517,14.6719107 L111.6154,14.6719107 L110.409662,17.5071728 L108.29898,17.5071728 L113.457856,5.67936699 Z"
              id="Fill-20"></path>
        <path d="M127.343178,17.6913903 C126.58363,17.6913903 125.89713,17.5825748 125.28321,17.3644777 C124.668826,17.1461476 124.144005,16.8190019 123.708516,16.3830408 C123.273259,15.9468466 122.938034,15.4071961 122.703773,14.7640893 C122.469278,14.1209825 122.352031,13.3744194 122.352031,12.524167 L122.352031,5.76339029 L124.411999,5.76339029 L124.411999,12.4405165 C124.411999,13.5368272 124.674176,14.3670408 125.19923,14.9316233 C125.72405,15.4966718 126.449866,15.7790796 127.37691,15.7790796 C128.292322,15.7790796 129.012554,15.5078563 129.537608,14.9654097 C130.062196,14.4229631 130.324606,13.6090602 130.324606,12.524167 L130.324606,5.76339029 L132.385039,5.76339029 L132.385039,12.4237398 C132.385039,13.2961282 132.264768,14.0622641 132.02469,14.7219146 C131.784613,15.3822641 131.447062,15.932866 131.011572,16.3746524 C130.57585,16.8164388 130.04847,17.1461476 129.428735,17.3644777 C128.809,17.5825748 128.113892,17.6913903 127.343178,17.6913903"
              id="Fill-22"></path>
        <polygon id="Fill-24"
                 points="138.096349 7.67584078 134.377939 7.67584078 134.377939 5.76329709 143.891709 5.76329709 143.891709 7.67584078 140.173299 7.67584078 140.173299 17.5069864 138.096349 17.5069864"></polygon>
    </g>
</svg>
