<?xml version="1.0" encoding="UTF-8"?>
<svg width="32px" height="32px" viewBox="0 0 32 32" version="1.1" xmlns="http://www.w3.org/2000/svg" xmlns:xlink="http://www.w3.org/1999/xlink">
    <!-- Generator: Sketch 57.1 (83088) - https://sketch.com -->
    <title>Combined Shape</title>
    <desc>Created with Sketch.</desc>
    <g id="✔-Sites-Fertigstellung" stroke="none" stroke-width="1" fill="none" fill-rule="evenodd">
        <g id="Module---RQ-Kosmonaut-Website---Startseite" transform="translate(-1321.000000, -11429.000000)" fill="#FFFFFF" fill-rule="nonzero">
            <g id="Module" transform="translate(-3.000000, -0.036982)">
                <g id="Kosmonaut-Module/RQ" transform="translate(0.000000, 0.036982)">
                    <g id="RQ-072-/-Footer-/-Footer" transform="translate(0.000000, 11277.000000)">
                        <g id="Molecules/Footer/Desktop">
                            <g id="Stacked-Group" transform="translate(856.000000, 112.000000)">
                                <g id="Kosmonaut-Social_Media" transform="translate(468.000000, 0.000000)">
                                    <path d="M23.464138,40 C23.464383,40.0050179 23.4682412,40.0153596 23.4698947,40.0156043 C24.4900506,40.0146864 25.5027964,40.0733098 26.4955163,40.338094 C27.5946121,40.6313333 28.5387065,41.1856851 29.3568277,41.9695737 C29.8909123,42.4812125 30.322724,43.0667118 30.6674507,43.7178718 C30.9939276,44.3342126 31.1771,44.9980396 31.3067476,45.6793068 C31.4133685,46.2383705 31.4552575,46.8022685 31.4623003,47.3704501 C31.4648112,47.5772841 31.4920635,63.2258062 31.4920635,63.2974026 L31.4920635,63.4819622 C31.483061,64.4071466 31.4303936,65.3290877 31.2199076,66.2378111 C30.8982688,67.628066 30.1857274,68.7799723 29.1296229,69.7211894 C28.2234368,70.5290047 27.1642702,71.0399703 25.9658411,71.2591654 C25.3405684,71.3734137 24.7138872,71.4510682 24.076795,71.4596965 C19.2756684,71.5239497 14.4745419,71.4691203 9.67353784,71.4893142 C9.01243906,71.4920635 8.35201394,71.4755456 7.69116012,71.4713845 C6.63193229,71.4652651 5.58795351,71.3402468 4.57600388,71.0140855 C3.88201858,70.7901173 3.25509239,70.4350727 2.68120108,69.9878094 C1.88188091,69.3649209 1.24864688,68.6023888 0.787561862,67.6994176 C0.446509606,67.0322862 0.267746537,66.3155268 0.142692002,65.5804706 C0.0246802046,64.8856797 0.0188622903,64.1825665 0,63.4820846 L0.0103497632,47.9908909 C0.0117583109,46.9799744 0.0692025587,45.9761564 0.333152141,44.9919203 C0.629008389,43.8887852 1.18660954,42.9414488 1.97766215,42.1223127 C2.6758731,41.3993116 3.49325942,40.8577492 4.43404677,40.5100478 C5.03133222,40.2896288 5.65629869,40.1715866 6.28732804,40.0931977 C6.86336279,40.0218461 7.44319449,40.0261908 8.02216882,40.0156043 C8.02253627,40.0105253 8.02271999,40.0052626 8.0230262,40 L8.0230262,40 Z M16.1286366,46.000653 L16.0528592,46 C15.9206169,46.001391 15.7883732,46.0026514 15.6561285,46.0037813 C14.8549228,46.0037813 12.140441,46.2309277 10.8604585,49.1519817 C10.4328034,50.1278323 10.5381343,51.8295392 10.6225874,53.1969442 C10.6353769,53.3968163 10.64722,53.59675 10.6581164,53.7967384 C10.6160991,53.8363625 10.4423266,53.9757925 10.0825376,53.9757925 C9.79323076,53.9757925 9.45683112,53.8854133 9.08291422,53.7071048 C9.01436802,53.6743509 8.93294979,53.6579474 8.84106648,53.6579474 C8.51016101,53.6579474 8.1007152,53.8773713 8.04190152,54.192447 C7.96116351,54.624531 8.56724796,54.9375829 8.93577536,55.0857473 C9.01368779,55.1172229 9.11148386,55.1487517 9.21487874,55.1820381 C9.63060359,55.3163021 10.2589786,55.519216 10.4487103,55.9746271 C10.5516343,56.221479 10.5178321,56.5246781 10.3479317,56.8755433 C10.3460119,56.8793186 10.3442487,56.8831743 10.3426469,56.8871003 C10.306647,56.9724733 9.97134622,57.7456762 9.28855282,58.554935 C8.40713241,59.6002343 7.36737552,60.2293204 6.19800874,60.4253107 C6.07883429,60.44528 5.99361234,60.5534712 6.00037592,60.6762102 C6.00297915,60.7210697 6.01332309,60.7651122 6.03093392,60.8063201 C6.20423546,61.2188583 7.07424894,61.559498 8.54673643,61.7907452 C8.68440441,61.8124213 8.74269484,62.0408458 8.82306657,62.4150914 C8.85519433,62.5648535 8.88847324,62.7203676 8.93488582,62.8808879 C8.99343788,63.0843876 9.13393143,63.1104841 9.24957044,63.1104841 C9.35997691,63.1104841 9.5028251,63.082204 9.66848714,63.0493436 C9.93770103,62.9957659 10.3064377,62.9221097 10.7730228,62.9221097 C11.0319809,62.9221097 11.2999913,62.9451706 11.5694145,62.9906531 C12.1179934,63.0835354 12.5862529,63.4205535 13.0827681,63.7775434 C13.7755033,64.27636 14.5604881,64.84127 15.7345119,64.84127 C15.7677908,64.84127 15.8010174,64.8400451 15.8331975,64.8372224 C15.8737496,64.8391929 15.9270691,64.84127 15.9829526,64.84127 C17.1568717,64.84127 17.9421181,64.2763067 18.6362138,63.7767978 C19.1318394,63.4201807 19.6000466,63.0836952 20.1480499,62.9908129 C20.4177871,62.9453836 20.6857451,62.9222695 20.9446509,62.9222695 C21.3886838,62.9222695 21.7378508,62.9796819 22.0491866,63.0413549 C22.2273021,63.0768249 22.3685282,63.0952522 22.468208,63.0952522 L22.468208,63.0952522 L22.4912834,63.0952522 C22.6443874,63.0952522 22.7397242,63.0224482 22.7825786,62.873485 C22.8283633,62.715095 22.8619038,62.5643742 22.8948688,62.4106177 C22.974508,62.0383427 23.0327461,61.8109301 23.1709896,61.7892007 C24.6438957,61.5576339 25.5138569,61.2174736 25.6859549,60.8072255 C25.7038814,60.7656758 25.7144736,60.7212357 25.7172455,60.675944 C25.7238834,60.5532275 25.638691,60.4451023 25.5195603,60.4250444 C22.6937825,59.951206 21.4272476,57.0118311 21.3749222,56.8869938 C21.3730908,56.8829462 21.3714688,56.8790583 21.369585,56.8752237 C21.1996323,56.524465 21.1657255,56.2213725 21.2688064,55.9745206 C21.4585381,55.5193758 22.0863899,55.3165684 22.5024811,55.1821447 C22.6062945,55.1486452 22.7045615,55.1169033 22.7815844,55.0858538 C23.5336043,54.7835601 23.6864989,54.4705615 23.6827838,54.2611501 C23.6785978,54.0365069 23.4846277,53.8226751 23.1884663,53.7156793 L23.1884663,53.7156793 C23.0789494,53.6693447 22.9542057,53.6450589 22.8316075,53.6450589 C22.7505032,53.6450589 22.6310444,53.6557638 22.5231496,53.7073178 C22.1741395,53.8736432 21.8572049,53.9635964 21.581398,53.9743545 C21.2578704,53.9614128 21.0988537,53.8335931 21.0592958,53.7965253 C21.068348,53.6259925 21.0790747,53.4500805 21.090691,53.2642093 L21.090691,53.2642093 L21.0946677,53.1987017 C21.1793824,51.8298587 21.284818,50.1267138 20.857163,49.1502242 C19.5763955,46.2274126 16.8562626,46 16.0528592,46 Z" id="Combined-Shape"></path>
                                </g>
                            </g>
                        </g>
                    </g>
                </g>
            </g>
        </g>
    </g>
</svg>