<svg height="54" viewBox="0 0 72 54" width="72" xmlns="http://www.w3.org/2000/svg"><path d="m58.2456471.01682353h-23.616353c-1.848647 0-3.3524117 1.50376471-3.3524117 3.35241176v2.81729412h-26.44982358c-2.37405882 0-4.30552941 1.93147059-4.30552941 4.30617649v19.8795882c0 2.3734118 1.93147059 4.3042353 4.30552941 4.3042353h4.13535294v8.3367059c0 .3843529.22647059.7318235.57782353.8877647.12617647.0556471.25947059.0828235.39211765.0828235.23682356 0 .47105886-.0867059.65288236-.2523529l9.9666471-9.0549412h17.3437647c2.3734117 0 4.3048823-1.9308235 4.3048823-4.3042353v-9.4535294h4.7060588l7.0380589 6.3935882c.1824705.1656471.4160588.252353.6528823.252353.1326471 0 .2665882-.0271765.3927647-.0828235.351353-.1552942.5778235-.5034118.5778235-.8877648v-5.6753529h2.6768824c1.8473529 0 3.3504708-1.5044118 3.3504708-3.3530588v-14.19647061c.0006468-1.84864705-1.5018237-3.35241176-3.3498237-3.35241176zm-17.9856471 30.35482357c0 1.3031764-1.0605294 2.3630588-2.3637059 2.3630588h-17.7190588c-.2413529 0-.4736471.0899412-.6528824.2523529l-8.6214117 7.8326471v-7.1144118c0-.5364117-.4341765-.9705882-.97058826-.9705882h-5.10594118c-1.30382352 0-2.36435294-1.0598824-2.36435294-2.3630588v-19.8795883c0-1.30382351 1.06052942-2.36499998 2.36435294-2.36499998h27.41135294c.0032353 0 .0064706.00064706.0097059.00064706s.0064706-.00064706.0097059-.00064706h5.6391176c1.3038235 0 2.3637059 1.06117647 2.3637059 2.36499998zm19.3949412-12.8059412c0 .7784117-.6321765 1.4118823-1.4092941 1.4118823h-3.6474706c-.5357647 0-.9705883.4341765-.9705883.9705883v4.4530588l-5.6928235-5.1712941c-.1785882-.1617647-.4115294-.252353-.6528823-.252353h-5.081353v-8.4848823c0-2.37405884-1.9314706-4.30617649-4.3048823-4.30617649h-4.6775883v-2.81729412c0-.77841176.6334706-1.41123529 1.4112353-1.41123529h23.616353c.7771176 0 1.4092941.63282353 1.4092941 1.41123529z" fill="#2d374b" fill-rule="evenodd" transform="translate(5 5)"/></svg>