<svg height="915" viewBox="0 0 1253 915" width="1253" xmlns="http://www.w3.org/2000/svg"><g fill="none" stroke="#a4a6a8" stroke-width="5" transform="translate(3 3)"><path d="m1156.24364 77.0029348c107.26815 86.6141432 112.61671 261.7725492 51.70266 403.3951172-60.61691 141.622568-187.19928 249.709298-353.301493 329.085491-166.102214 79.376192-371.724275 130.041847-538.123631 78.893662-166.399355-51.148185-293.8731471-204.110209-313.78164141-354.418318-19.61135259-150.066844 68.34259241-297.238507 191.06211741-386.747831 122.719524-89.5093229 279.907487-121.3563059 462.946778-138.00359243 183.336433-16.88855157 392.22705-18.81867175 499.49521 67.79547123z"/><path d="m900.179715 230.372086c53.511301 90.3905 32.952353 166.055863 0 242.69037-32.79161 76.634508-165.924867 212.108958-255.780306 255.060837-89.85544 42.951879-321.579101 27.677198-411.595284 0-90.016183-27.677199-90.402401-158.462106-101.172195-239.796515-10.60905-81.203856 125.093546-238.990174 298.063082-305.366655 172.969535-66.376481 416.973402-42.978537 470.484703 47.411963z"/><path d="m782.622194 300.140875c36.430387 61.495177 22.433896 112.972431 0 165.109023-22.324463 52.136591-129.601959 31.979258-190.775363 61.200619-61.173404 29.22136-202.28977 131.153946-263.572607 112.324376-61.282838-18.82957-61.545775-107.806186-68.877829-163.140252-7.22262-55.245246 85.163437-162.591676 202.920752-207.749445 117.757314-45.15777 283.87466-29.239497 320.305047 32.255679z"/><path d="m1108.93845 128.679988c96.19884 77.698137-47.14542 242.573964-101.77357 369.617994-54.361673 127.044029-120.437821 247.248733-269.399457 318.45399-148.961636 71.205256-302.381236 46.922354-451.609351 1.039332-149.228115-45.883023-193.8341558-183.099231-211.6882338-317.934717-17.5875992-134.619056 76.7819748-235.648487 186.8377098-315.943776s165.817797-101.1158454 329.968723-116.0494706c164.417405-15.1500546 421.465339-16.8814894 517.664179 60.8166476z"/></g></svg>